<svg xmlns="http://www.w3.org/2000/svg" viewBox="0 0 1600 700" preserveAspectRatio="xMidYMid slice">
  <defs>
    <linearGradient id="sky2" x1="0" y1="0" x2="0" y2="1">
      <stop offset="0%" stop-color="#6B1820"/>
      <stop offset="100%" stop-color="#141C42"/>
    </linearGradient>
    <linearGradient id="cliff" x1="0" y1="0" x2="0" y2="1">
      <stop offset="0%" stop-color="#8E806B"/>
      <stop offset="100%" stop-color="#1A1714"/>
    </linearGradient>
  </defs>
  <rect width="1600" height="700" fill="url(#sky2)"/>
  <path d="M0 480 L300 280 L520 440 L780 220 L1050 420 L1280 320 L1600 460 L1600 700 L0 700 Z" fill="url(#cliff)"/>
  <g fill="#1A1714">
    <rect x="640" y="360" width="60" height="120"/>
    <rect x="720" y="320" width="120" height="160"/>
    <rect x="860" y="360" width="60" height="120"/>
    <polygon points="640,360 670,300 700,360"/>
    <polygon points="720,320 780,260 840,320"/>
    <polygon points="860,360 890,300 920,360"/>
    <rect x="775" y="380" width="10" height="40" fill="#C8843D" opacity="0.7"/>
  </g>
</svg>
